{"title":"Warehouse.13.S01E13.DVDRip.XviD-CLERKS","uid":10401930,"size":367011840,"categoryP":"video","categoryS":"tv_shows","magnet":"?xt=urn:btih:1ede57a674d1db1f4580d7aa5e222ffacea86b75&amp;dn=Warehouse.13.S01E13.DVDRip.XviD-CLERKS&amp;tr=udp%3A%2F%2Ftracker.openbittorrent.com%3A80&amp;tr=udp%3A%2F%2Fopen.demonii.com%3A1337&amp;tr=udp%3A%2F%2Ftracker.coppersurfer.tk%3A6969&amp;tr=udp%3A%2F%2Fexodus.desync.com%3A6969","seeders":0,"leechers":1,"uploader":"lithyum","files":1,"time":1403380238,"description":"General\nComplete name                            : Warehouse.13.S01E13.DVDRip.XviD-CLERKS\nFormat                                   : AVI\nFormat/Info                              : Audio Video Interleave\nFile size                                : 350 MiB\nDuration                                 : 43mn 45s\nOverall bit rate mode                    : Variable\nOverall bit rate                         : 1 118 Kbps\nWriting application                      : VirtualDubMod 1.5.10.2 (build 2540/release)\nWriting library                          : VirtualDubMod build 2540/release\n\nVideo\nID                                       : 0\nFormat                                   : MPEG-4 Visual\nFormat profile                           : Advanced Simple@L5\nFormat settings, BVOP                    : 2\nFormat settings, QPel                    : No\nFormat settings, GMC                     : No warppoints\nFormat settings, Matrix                  : Default (H.263)\nMuxing mode                              : Packed bitstream\nCodec ID                                 : XVID\nCodec ID/Hint                            : XviD\nDuration                                 : 43mn 45s\nBit rate                                 : 963 Kbps\nWidth                                    : 624 pixels\nHeight                                   : 352 pixels\nDisplay aspect ratio                     : 16:9\nFrame rate                               : 23.976 fps\nColor space                              : YUV\nChroma subsampling                       : 4:2:0\nBit depth                                : 8 bits\nScan type                                : Progressive\nCompression mode                         : Lossy\nBits/(Pixel*Frame)                       : 0.183\nStream size                              : 301 MiB (86%)\nWriting library                          : XviD 1.2.1 (UTC 2008-12-04)\n\nAudio\nID                                       : 1\nFormat                                   : MPEG Audio\nFormat version                           : Version 1\nFormat profile                           : Layer 3\nMode                                     : Joint stereo\nMode extension                           : MS Stereo\nCodec ID                                 : 55\nCodec ID/Hint                            : MP3\nDuration                                 : 43mn 45s\nBit rate mode                            : Variable\nBit rate                                 : 143 Kbps\nMinimum bit rate                         : 32.0 Kbps\nChannel(s)                               : 2 channels\nSampling rate                            : 48.0 KHz\nCompression mode                         : Lossy\nStream size                              : 44.6 MiB (13%)\nAlignment                                : Aligned on interleaves\nInterleave, duration                     : 24 ms (0.58 video frame)\nInterleave, preload duration             : 129 ms\nWriting library                          : LAME3.98r\nEncoding settings                        : -m j -V 4 -q 2 -lowpass 17.5 --vbr-new -b 32\n","torrent":{"xt":"urn:btih:1ede57a674d1db1f4580d7aa5e222ffacea86b75","amp;dn":"Warehouse.13.S01E13.DVDRip.XviD-CLERKS","amp;tr":["udp%3A%2F%2Ftracker.openbittorrent.com%3A80","udp%3A%2F%2Fopen.demonii.com%3A1337","udp%3A%2F%2Ftracker.coppersurfer.tk%3A6969","udp%3A%2F%2Fexodus.desync.com%3A6969"],"infoHash":"1ede57a674d1db1f4580d7aa5e222ffacea86b75","infoHashBuffer":{"type":"Buffer","data":[30,222,87,166,116,209,219,31,69,128,215,170,94,34,47,250,206,168,107,117]},"announce":[],"urlList":[]}}